HIERARCHY
ROOT hip
{
	OFFSET 0.000000 0.000000 0.000000 
	CHANNELS 6 Xposition Yposition Zposition Xrotation Zrotation Yrotation
	JOINT abdomen
	{
		OFFSET 0.000000 3.402643 0.000000 
		CHANNELS 3 Xrotation Zrotation Yrotation
		JOINT chest
		{
			OFFSET 0.000000 8.438565 -0.680529 
			CHANNELS 3 Xrotation Zrotation Yrotation
			JOINT neck
			{
				OFFSET 0.000000 10.207942 -0.272212 
				CHANNELS 3 Xrotation Zrotation Yrotation
				JOINT head
				{
					OFFSET 0.000000 3.130431 0.000000 
					CHANNELS 3 Xrotation Zrotation Yrotation
					End Site
					{
						OFFSET 0.000000 3.130435 0.000000 
					}
				}
			}
			JOINT lCollar
			{
				OFFSET 3.470700 6.669187 -0.816635 
				CHANNELS 3 Yrotation Zrotation Xrotation
				JOINT lShldr
				{
					OFFSET 3.198488 0.000000 0.000000 
					CHANNELS 3 Zrotation Yrotation Xrotation
					JOINT lForeArm
					{
						OFFSET 10.139888 0.000000 0.000000 
						CHANNELS 3 Yrotation Zrotation Xrotation
						JOINT lHand
						{
							OFFSET 8.370511 0.000000 0.000000 
							CHANNELS 3 Zrotation Yrotation Xrotation
							End Site
							{
								OFFSET 4.083176 0.000000 0.000000 
							}
						}
					}
				}
			}
			JOINT rCollar
			{
				OFFSET -3.470700 6.669187 -0.816635 
				CHANNELS 3 Yrotation Zrotation Xrotation
				JOINT rShldr
				{
					OFFSET -3.198488 0.000000 0.000000 
					CHANNELS 3 Zrotation Yrotation Xrotation
					JOINT rForeArm
					{
						OFFSET -10.139888 0.000000 0.000000 
						CHANNELS 3 Yrotation Zrotation Xrotation
						JOINT rHand
						{
							OFFSET -8.370511 0.000000 0.000000 
							CHANNELS 3 Zrotation Yrotation Xrotation
							End Site
							{
								OFFSET -4.083176 0.000000 0.000000 
							}
						}
					}
				}
			}
		}
	}
	JOINT lThigh
	{
		OFFSET 5.308129 -1.633274 1.361059 
		CHANNELS 3 Xrotation Zrotation Yrotation
		JOINT lShin
		{
			OFFSET -2.041588 -20.007561 0.000000 
			CHANNELS 3 Xrotation Zrotation Yrotation
			JOINT lFoot
			{
				OFFSET 0.000000 -19.190928 -1.224953 
				CHANNELS 3 Xrotation Yrotation Zrotation
				End Site
				{
					OFFSET 0.000000 -2.449906 4.627600 
				}
			}
		}
	}
	JOINT rThigh
	{
		OFFSET -5.308129 -1.633274 1.361059 
		CHANNELS 3 Xrotation Zrotation Yrotation
		JOINT rShin
		{
			OFFSET 2.041588 -20.007561 0.000000 
			CHANNELS 3 Xrotation Zrotation Yrotation
			JOINT rFoot
			{
				OFFSET 0.000000 -19.190928 -1.224953 
				CHANNELS 3 Xrotation Yrotation Zrotation
				End Site
				{
					OFFSET 0.000000 -2.449906 4.627600 
				}
			}
		}
	}
}
MOTION
Frames: 13
Frame Time: 0.033333
-54.469429 50.037113 27.931293 4.443985 -0.563302 39.728775 0.000000 0.000000 0.000000 -0.738761 2.928046 0.674806 3.902161 1.219010 3.018349 16.118267 -1.122784 1.240379 -4.475881 -1.720136 -0.107046 -70.062515 -14.522266 21.556246 -75.122391 0.894092 6.690677 0.189839 3.905758 -3.513731 7.375634 11.833139 -0.961722 48.004742 -13.706032 2.382799 89.902168 -2.363956 0.790765 -14.510915 -6.158245 -3.201312 -7.481976 3.423654 0.458465 9.198466 -1.923641 -0.860190 -1.957244 0.124471 -3.272251 -5.904951 -5.982341 -5.768672 9.237050 5.487641 0.587455 -5.516516 0.162595 -2.195291 
-54.965549 50.126614 27.664627 5.069889 -1.568579 40.437992 0.000000 0.000000 0.000000 -1.560046 3.078618 0.503645 3.354365 1.102646 2.275908 16.122894 -0.019531 0.449219 -4.454998 -1.449348 -0.827812 -70.380821 -14.298310 21.953402 -75.192657 1.040833 7.623041 0.171068 4.051365 -3.513987 7.327034 11.830723 -1.714786 49.075806 -14.211489 1.663090 90.108795 -2.245337 0.797959 -14.660677 -6.533717 -3.156430 -7.905602 2.781308 -0.361031 11.494963 -1.902448 -8.422573 -4.230707 0.151543 -1.302519 -7.613745 -5.514615 -5.414799 9.227539 5.653807 -0.201855 -4.178236 0.133545 -2.527893 
-55.462589 50.130196 27.340553 5.520605 -2.818970 40.429806 0.000000 0.000000 0.000000 -2.186485 3.351757 0.487673 2.675739 0.966748 0.576255 16.117104 1.425346 -1.416306 -4.203834 -0.964514 -1.363666 -70.715553 -14.117983 22.190550 -75.866478 1.290863 7.723338 0.565603 4.300863 -3.512297 7.488850 12.027443 -2.309417 49.705040 -14.562576 1.177216 90.283882 -2.174620 1.258571 -14.413473 -6.427545 -3.179561 -8.914790 2.519072 -0.631167 14.213742 -2.012769 -16.213774 -6.529636 -0.098514 2.240595 -9.397664 -4.722613 -4.818806 8.908123 5.893069 -0.487609 -3.014753 0.176432 -2.934375 
-55.970474 50.059624 26.941771 6.086054 -4.023916 39.314251 0.000000 0.000000 0.000000 -2.537802 3.415847 0.854372 2.147484 0.809982 -2.138872 15.593259 2.998483 -4.517788 -3.725418 -0.437308 -1.685923 -71.063744 -13.952562 22.053732 -76.696556 1.631503 8.532529 0.523452 4.200317 -3.506831 7.943573 11.933486 -2.673813 50.277729 -14.471610 1.313744 90.371262 -2.156337 0.576829 -15.110605 -6.391136 -3.161589 -8.206418 2.205222 -1.612747 12.069021 -1.367728 -19.037487 -8.299030 -0.263086 4.248789 -11.665941 -3.983154 -4.030787 9.382240 6.123916 0.738049 -2.874834 0.225139 -3.408925 
-56.551472 49.964367 26.405785 6.371560 -5.226913 37.437553 0.000000 0.000000 0.000000 -2.283425 3.492411 1.249322 2.176027 0.757524 -6.016130 14.227172 4.672408 -8.700905 -3.145749 -0.007517 -1.462638 -71.000778 -14.259789 21.400188 -77.518860 2.010539 9.348228 0.521655 4.229558 -3.506429 8.182033 11.796119 -2.442407 50.727264 -13.069259 1.816226 90.122902 -2.265381 0.227249 -15.096837 -6.733245 -3.119276 -7.046646 2.557214 -2.174131 7.587177 -0.430004 -16.683237 -8.890216 -0.200587 3.090963 -12.985800 -3.095398 -3.222940 8.246241 6.558394 3.647716 -2.745221 0.196911 -3.240000 
-57.259167 49.959949 25.774740 6.593024 -5.904863 35.124813 0.000000 0.000000 0.000000 -1.265612 3.070683 1.249888 3.007307 0.663471 -10.059270 12.299003 5.769419 -12.485564 -2.546944 -0.785416 -0.565795 -69.764519 -15.067444 19.913548 -78.180771 2.210056 9.446185 0.290840 4.313253 -3.522740 7.989367 11.359392 -1.432981 51.441650 -9.874450 2.843866 88.922592 -2.434808 0.337493 -15.669146 -6.659200 -3.112046 -7.593246 3.572094 -1.436825 5.514376 -0.810950 -12.670242 -7.043105 0.038304 0.733792 -13.547048 -2.410691 -2.504160 6.205902 7.095231 7.534911 -2.119422 0.186726 -2.807172 
-57.990940 49.955223 25.094097 7.476542 -5.989624 32.227818 0.000000 0.000000 0.000000 -0.236698 1.926658 0.769386 3.541651 0.170608 -13.935601 11.657252 6.378908 -15.301789 -3.568236 -2.813070 0.322209 -66.554237 -14.789351 16.223490 -79.596886 2.161666 8.607517 0.159665 4.236557 -3.513314 7.770614 10.982594 -0.394867 51.905216 -5.758797 3.705153 87.725693 -2.540013 1.033215 -16.268097 -6.894313 -3.073326 -8.474548 4.110124 -0.809506 3.780739 -1.414244 -9.469286 -5.121363 0.124694 -0.849326 -14.573701 -2.587225 -1.823076 4.877974 7.633926 13.368003 -1.414855 0.183846 -2.194304 
-58.561638 49.932751 24.424417 8.331635 -6.224367 28.138590 0.000000 0.000000 0.000000 0.467962 1.215240 0.611004 3.787696 -0.028067 -16.660160 12.288369 6.277558 -17.293722 -4.370739 -4.091650 0.888669 -63.834320 -13.839005 12.687889 -80.689957 1.969417 8.105281 0.209505 4.542901 -3.507146 7.929948 10.554067 0.263872 52.971062 -2.116022 4.346802 87.150688 -2.633299 2.220841 -16.534195 -7.984569 -2.914888 -10.830844 4.478723 -0.667537 5.643242 -1.376628 -4.835352 -5.218834 0.113789 -1.247448 -16.089579 -2.714360 -1.098500 4.875633 8.178494 21.181179 -0.459629 0.146526 -1.251306 
-59.033775 49.950344 23.932661 8.715106 -6.339347 23.058596 0.000000 0.000000 0.000000 0.918178 0.766951 0.849690 3.800768 0.083525 -18.134775 14.459146 5.304970 -18.303473 -4.645313 -3.698265 1.278035 -62.868763 -12.311668 10.346838 -81.167252 1.688957 6.941445 0.376932 4.827269 -3.510256 8.173491 10.277918 0.716866 54.751575 0.758583 5.206827 86.921837 -2.956790 4.283385 -17.445150 -8.938309 -2.738269 -11.984930 5.299307 -0.096975 6.846341 -1.188848 0.236178 -5.400697 0.223682 -1.849024 -18.101500 -2.215969 -0.124512 8.114674 7.781204 24.976671 0.103502 0.102753 -0.639800 
-59.455917 49.962971 23.597725 8.832803 -6.154405 18.429775 0.000000 0.000000 0.000000 1.084656 0.253508 0.917757 4.452139 0.407025 -18.691889 15.536766 4.750648 -18.552345 -5.393639 -2.703196 1.421037 -62.610165 -9.964359 9.247618 -81.423065 1.472655 5.440599 0.952607 4.501354 -3.518095 8.184157 11.070831 0.864622 55.424408 1.988647 6.487419 87.416801 -3.554853 6.509593 -17.775537 -9.652033 -2.618045 -12.247318 6.098956 0.519339 7.614673 -0.945675 4.563942 -5.531957 0.197433 -2.669599 -19.799097 -1.844957 0.540544 13.143089 6.345444 24.490000 -2.268343 0.183510 -2.988518 
-59.755867 50.046349 23.471613 7.239950 -6.683422 15.212563 0.000000 0.000000 0.000000 1.981137 1.343412 -0.627255 5.571389 0.378098 -19.209387 16.386053 5.012203 -18.157721 -6.103700 -3.022961 2.313757 -61.735847 -7.388343 8.243030 -82.051971 1.439471 4.272697 2.573141 3.752123 -3.499546 6.618207 11.244815 1.630294 56.210758 4.273947 9.225567 86.410500 -4.164980 7.330700 -18.099083 -9.879561 -2.583602 -10.861612 7.689845 1.451439 8.116072 -0.527236 6.993850 -5.608688 0.290405 -3.427708 -18.219786 -1.669777 -0.154639 15.646998 5.458623 16.128523 -3.034760 0.193424 -3.929801 
-60.119755 50.058689 23.218523 7.877303 -5.770571 11.533498 0.000000 0.000000 0.000000 1.632091 0.989555 -1.672646 5.563541 -0.543083 -19.512657 17.102909 5.388598 -17.687550 -6.603481 -4.395860 1.935735 -60.870804 -5.587434 7.334235 -82.853806 1.552105 4.524245 -0.913120 4.386250 -3.516574 5.721673 10.285704 1.381817 57.061028 4.969923 10.114818 85.626396 -4.215005 7.327567 -17.477497 -9.304759 -2.686105 -10.257840 7.573631 1.765981 6.841431 -0.547023 10.583902 -4.785203 0.327358 -3.913891 -18.306988 -4.296221 -1.995947 17.838938 5.106874 8.051078 -2.722952 0.182300 -2.834746 
-60.462265 50.127815 23.063490 8.537433 -4.669558 7.250148 0.000000 0.000000 0.000000 1.154332 0.431708 -1.659246 5.082154 -0.488848 -19.180460 17.655342 5.523421 -17.230839 -6.723193 -4.109509 1.468247 -61.491020 -5.098641 7.817018 -82.547386 1.411662 3.681239 -1.220141 3.819868 -3.511043 5.819609 10.184309 0.947190 57.475193 3.246304 8.366156 85.887276 -3.875547 7.852727 -15.573814 -8.722855 -2.851868 -8.690221 7.518436 2.475781 3.936718 -0.933266 14.543325 -3.276751 0.272311 -4.090108 -16.900169 -7.488194 -4.380946 16.782204 4.930205 0.050751 -0.768198 0.000814 2.450517 
